<svg xmlns="http://www.w3.org/2000/svg" width="278" height="30" viewBox="0 0 278 30" fill="none"><path d="M0 3C0 1.34315 1.34315 0 3 0H43C44.6569 0 46 1.34315 46 3V27C46 28.6569 44.6569 30 43 30H3C1.34315 30 0 28.6569 0 27V3Z" fill="white"></path><path d="M20.6693 19.9083H17.8373L19.6086 9.5625H22.4405L20.6693 19.9083Z" fill="#00579F"></path><path d="M30.9355 9.81546C30.3769 9.60613 29.491 9.375 28.3955 9.375C25.5988 9.375 23.6294 10.7837 23.6173 12.7977C23.594 14.2837 25.0273 15.109 26.0993 15.6045C27.195 16.1108 27.5674 16.4412 27.5674 16.8925C27.5563 17.5856 26.682 17.9051 25.8667 17.9051C24.736 17.9051 24.1302 17.7404 23.2095 17.3548L22.8366 17.1895L22.4403 19.5119C23.1045 19.7977 24.3283 20.0514 25.5988 20.0625C28.5703 20.0625 30.5049 18.6756 30.5278 16.5293C30.5391 15.3516 29.7823 14.4491 28.1506 13.7117C27.1601 13.2384 26.5535 12.9192 26.5535 12.4348C26.5651 11.9945 27.0666 11.5435 28.1847 11.5435C29.1054 11.5214 29.7818 11.7305 30.2943 11.9396L30.5504 12.0495L30.9355 9.81546V9.81546Z" fill="#00579F"></path><path d="M34.6996 16.2431C34.9328 15.6488 35.8302 13.3485 35.8302 13.3485C35.8185 13.3706 36.063 12.7432 36.2028 12.358L36.4008 13.2494C36.4008 13.2494 36.9371 15.7259 37.0535 16.2431C36.6109 16.2431 35.2589 16.2431 34.6996 16.2431ZM38.1953 9.5625H36.0048C35.3292 9.5625 34.816 9.74945 34.5246 10.4209L30.318 19.9081H33.2895C33.2895 19.9081 33.7787 18.6312 33.8839 18.3562C34.2099 18.3562 37.1006 18.3562 37.52 18.3562C37.6013 18.7194 37.8579 19.9081 37.8579 19.9081H40.48L38.1953 9.5625V9.5625Z" fill="#00579F"></path><path d="M15.4719 9.5625L12.6985 16.6173L12.3954 15.1865C11.8827 13.5356 10.2745 11.7418 8.47998 10.8499L11.0204 19.8973H14.0151L18.4666 9.5625H15.4719V9.5625Z" fill="#00579F"></path><path d="M10.1231 9.5625H5.56663L5.52002 9.77154C9.07431 10.6301 11.4282 12.6996 12.3954 15.187L11.4049 10.4322C11.2418 9.77139 10.7406 9.5843 10.1231 9.5625Z" fill="#FAA61A"></path><path d="M58 3C58 1.34315 59.3431 0 61 0H101C102.657 0 104 1.34315 104 3V27C104 28.6569 102.657 30 101 30H61C59.3431 30 58 28.6569 58 27V3Z" fill="white"></path><path fill-rule="evenodd" clip-rule="evenodd" d="M80.9997 22.0365C79.4336 23.4137 77.4022 24.245 75.1824 24.245C70.2293 24.245 66.214 20.1059 66.214 15C66.214 9.89404 70.2293 5.75488 75.1824 5.75488C77.4022 5.75488 79.4336 6.58624 80.9997 7.96339C82.5657 6.58624 84.5972 5.75488 86.817 5.75488C91.7701 5.75488 95.7854 9.89404 95.7854 15C95.7854 20.1059 91.7701 24.245 86.817 24.245C84.5972 24.245 82.5657 23.4137 80.9997 22.0365Z" fill="#ED0006"></path><path fill-rule="evenodd" clip-rule="evenodd" d="M80.9997 22.0365C82.9281 20.3408 84.1508 17.8176 84.1508 15C84.1508 12.1823 82.9281 9.6591 80.9997 7.96339C82.5658 6.58624 84.5972 5.75488 86.817 5.75488C91.7701 5.75488 95.7854 9.89404 95.7854 15C95.7854 20.1059 91.7701 24.245 86.817 24.245C84.5972 24.245 82.5658 23.4137 80.9997 22.0365Z" fill="#F9A000"></path><path fill-rule="evenodd" clip-rule="evenodd" d="M80.9998 7.96337C82.9281 9.65909 84.1508 12.1823 84.1508 14.9999C84.1508 17.8175 82.9281 20.3407 80.9998 22.0364C79.0715 20.3407 77.8488 17.8175 77.8488 14.9999C77.8488 12.1823 79.0715 9.65909 80.9998 7.96337Z" fill="#FF5E00"></path><path d="M116 3C116 1.34315 117.343 0 119 0H159C160.657 0 162 1.34315 162 3V27C162 28.6569 160.657 30 159 30H119C117.343 30 116 28.6569 116 27V3Z" fill="white"></path><path d="M120.322 8.95029H118.421V15.8253H120.322C121.326 15.8253 122.053 15.5753 122.694 15.0378C123.457 14.3878 123.905 13.4128 123.905 12.4003C123.893 10.3628 122.428 8.95029 120.322 8.95029V8.95029ZM121.847 14.1253C121.435 14.5003 120.915 14.6753 120.067 14.6753H119.716V10.1253H120.067C120.903 10.1253 121.411 10.2753 121.847 10.6753C122.295 11.0878 122.561 11.7253 122.561 12.3878C122.561 13.0503 122.295 13.7128 121.847 14.1253ZM124.498 8.95029H125.793V15.8253H124.498V8.95029V8.95029ZM128.965 11.5878C128.19 11.2878 127.96 11.0878 127.96 10.7253C127.96 10.2878 128.372 9.96279 128.928 9.96279C129.316 9.96279 129.643 10.1253 129.969 10.5253L130.647 9.61279C130.09 9.11279 129.425 8.85029 128.686 8.85029C127.512 8.85029 126.604 9.70029 126.604 10.8253C126.604 11.7753 127.028 12.2628 128.238 12.7128C128.747 12.9003 129.001 13.0253 129.134 13.1003C129.388 13.2753 129.522 13.5253 129.522 13.8128C129.522 14.3753 129.098 14.7878 128.517 14.7878C127.899 14.7878 127.403 14.4628 127.1 13.8753L126.265 14.7128C126.858 15.6253 127.585 16.0253 128.565 16.0253C129.909 16.0253 130.865 15.1003 130.865 13.7628C130.889 12.6503 130.442 12.1503 128.965 11.5878V11.5878ZM131.289 12.4003C131.289 14.4253 132.826 15.9878 134.799 15.9878C135.356 15.9878 135.84 15.8753 136.422 15.5878V14.0128C135.901 14.5503 135.441 14.7628 134.86 14.7628C133.553 14.7628 132.62 13.7878 132.62 12.3878C132.62 11.0628 133.577 10.0253 134.799 10.0253C135.417 10.0253 135.889 10.2503 136.422 10.8003V9.22529C135.853 8.92529 135.38 8.80029 134.824 8.80029C132.875 8.80029 131.289 10.4003 131.289 12.4003V12.4003ZM146.735 13.5753L144.956 8.95029H143.539L146.36 16.0003H147.062L149.931 8.95029H148.527L146.735 13.5753V13.5753ZM150.524 15.8253H154.204V14.6628H151.819V12.8128H154.119V11.6503H151.819V10.1253H154.204V8.95029H150.524V15.8253V15.8253ZM159.349 10.9878C159.349 9.70029 158.489 8.96279 156.988 8.96279H155.064V15.8378H156.359V13.0753H156.528L158.32 15.8378H159.918L157.824 12.9378C158.804 12.7253 159.349 12.0378 159.349 10.9878V10.9878ZM156.734 12.1253H156.359V10.0378H156.758C157.569 10.0378 158.005 10.3878 158.005 11.0628C158.005 11.7503 157.569 12.1253 156.734 12.1253V12.1253Z" fill="#231F20"></path><path d="M140.404 16.0751C141.345 16.0751 142.248 15.6891 142.913 15.002C143.578 14.3149 143.952 13.383 143.952 12.4113C143.952 11.4396 143.578 10.5077 142.913 9.82065C142.248 9.13356 141.345 8.74756 140.404 8.74756C139.463 8.74756 138.561 9.13356 137.895 9.82065C137.23 10.5077 136.856 11.4396 136.856 12.4113C136.856 13.383 137.23 14.3149 137.895 15.002C138.561 15.6891 139.463 16.0751 140.404 16.0751Z" fill="url(#paint0_linear_3880_8500)"></path><path opacity="0.65" d="M140.404 16.0751C141.345 16.0751 142.248 15.6891 142.913 15.002C143.578 14.3149 143.952 13.383 143.952 12.4113C143.952 11.4396 143.578 10.5077 142.913 9.82065C142.248 9.13356 141.345 8.74756 140.404 8.74756C139.463 8.74756 138.561 9.13356 137.895 9.82065C137.23 10.5077 136.856 11.4396 136.856 12.4113C136.856 13.383 137.23 14.3149 137.895 15.002C138.561 15.6891 139.463 16.0751 140.404 16.0751Z" fill="url(#paint1_linear_3880_8500)"></path><path d="M160.269 9.38232C160.269 9.25732 160.184 9.19482 160.051 9.19482H159.857V9.79482H160.003V9.55732L160.172 9.79482H160.342L160.148 9.54482C160.221 9.53232 160.269 9.46982 160.269 9.38232V9.38232ZM160.027 9.46982H160.003V9.30732H160.027C160.1 9.30732 160.136 9.33232 160.136 9.38232C160.136 9.44482 160.1 9.46982 160.027 9.46982Z" fill="#231F20"></path><path d="M160.075 8.97021C159.797 8.97021 159.567 9.20771 159.567 9.49521C159.567 9.78271 159.797 10.0202 160.075 10.0202C160.354 10.0202 160.584 9.78271 160.584 9.49521C160.584 9.20771 160.354 8.97021 160.075 8.97021ZM160.075 9.93271C159.857 9.93271 159.664 9.74521 159.664 9.49521C159.664 9.25771 159.845 9.05771 160.075 9.05771C160.293 9.05771 160.475 9.25771 160.475 9.49521C160.475 9.73271 160.293 9.93271 160.075 9.93271Z" fill="#231F20"></path><path d="M161.971 15.9375C161.971 15.9375 149.619 25.6097 127.04 30H159.477C160.135 30 160.766 29.7073 161.233 29.1855C161.7 28.6638 161.965 27.9553 161.97 27.2145L162 22.9744L161.971 15.9389V15.9375Z" fill="#F48120"></path><path d="M174 3C174 1.34315 175.343 0 177 0H217C218.657 0 220 1.34315 220 3V27C220 28.6569 218.657 30 217 30H177C175.343 30 174 28.6569 174 27V3Z" fill="white"></path><path d="M202.932 10.375C203.174 9.125 202.932 8.25 202.205 7.5C201.479 6.625 200.148 6.25 198.453 6.25H193.49C193.126 6.25 192.884 6.5 192.763 6.875L190.948 19.5C190.948 19.75 191.069 20 191.311 20H194.579L195.063 15.75L197.242 13L202.932 10.375V10.375Z" fill="#003087"></path><path d="M202.932 10.375L202.69 10.625C202.084 14.125 200.027 15.375 197.121 15.375H195.79C195.427 15.375 195.184 15.625 195.063 16L194.337 20.875L194.095 22.125C194.095 22.375 194.216 22.625 194.458 22.625H197C197.363 22.625 197.605 22.375 197.605 22.125V22L198.09 19V18.875C198.09 18.625 198.453 18.375 198.695 18.375H199.058C201.6 18.375 203.537 17.375 204.021 14.375C204.263 13.125 204.142 12.125 203.537 11.375C203.416 10.75 203.174 10.5 202.932 10.375Z" fill="#3086C8"></path><path d="M202.205 10.125C202.084 10 201.963 10 201.842 10C201.721 10 201.6 10 201.479 9.875C201.116 9.75 200.631 9.75 200.147 9.75H196.516C196.395 9.75 196.274 9.75 196.274 9.875C196.031 10 195.91 10.125 195.91 10.375L195.063 15.875V16C195.063 15.625 195.426 15.375 195.789 15.375H197.363C200.389 15.375 202.326 14.125 202.931 10.625V10.375C202.81 10.25 202.568 10.125 202.326 10.125H202.205V10.125Z" fill="#012169"></path><path d="M232 3C232 1.34315 233.343 0 235 0H275C276.657 0 278 1.34315 278 3V27C278 28.6569 276.657 30 275 30H235C233.343 30 232 28.6569 232 27V3Z" fill="white"></path><path fill-rule="evenodd" clip-rule="evenodd" d="M260.86 15.8672H262.486C262.513 15.8676 262.539 15.8693 262.566 15.8722C262.599 15.876 262.631 15.881 262.663 15.8872L262.673 15.8892C262.72 15.9006 262.765 15.9173 262.808 15.9392C262.914 15.9909 263.006 16.0699 263.077 16.1692C263.142 16.2597 263.188 16.365 263.211 16.4772C263.253 16.6793 263.224 16.891 263.13 17.0712C263.071 17.1813 262.988 17.2738 262.889 17.3402C262.822 17.3849 262.749 17.4174 262.673 17.4362L262.663 17.4387C262.649 17.4424 262.634 17.4451 262.62 17.4467C262.575 17.4536 262.531 17.4576 262.486 17.4587H260.86V15.8672V15.8672ZM263.023 14.0652C263.057 14.2354 263.038 14.413 262.969 14.5702C262.911 14.6988 262.817 14.8043 262.7 14.8722C262.634 14.9129 262.561 14.9408 262.486 14.9547L262.479 14.9557C262.464 14.9588 262.448 14.961 262.432 14.9622C262.396 14.966 262.36 14.9683 262.324 14.9692H260.86V13.5007H262.351C262.387 13.5023 262.423 13.5056 262.459 13.5107L262.479 13.5132L262.486 13.5147C262.541 13.5252 262.595 13.5432 262.647 13.5682C262.694 13.5917 262.739 13.6205 262.781 13.6542C262.832 13.6966 262.877 13.7468 262.915 13.8032C262.967 13.8815 263.004 13.9707 263.023 14.0652ZM266.355 6.44824H266.366V21.5352C266.365 21.9197 266.298 22.3006 266.167 22.6577C266.089 22.8677 265.99 23.0673 265.871 23.2527C265.854 23.2801 265.836 23.3071 265.817 23.3337L265.79 23.3717C265.764 23.4085 265.737 23.4447 265.71 23.4802L265.683 23.5147L265.656 23.5472C265.638 23.5687 265.621 23.5898 265.603 23.6107L265.575 23.6407L265.549 23.6707L265.522 23.6992L265.495 23.7272C265.451 23.7718 265.407 23.8148 265.361 23.8562L265.334 23.8802L265.307 23.9037L265.28 23.9262L265.253 23.9482L265.226 23.9697L265.199 23.9912L265.173 24.0112L265.145 24.0317L265.119 24.0512L265.092 24.0702L265.065 24.0887C265.047 24.101 265.029 24.113 265.011 24.1247L264.984 24.1422C264.976 24.1478 264.967 24.1533 264.958 24.1587L264.931 24.1752L264.904 24.1912L264.877 24.2062L264.85 24.2217L264.823 24.2367L264.796 24.2507L264.77 24.2647L264.742 24.2782L264.716 24.2917L264.689 24.3042L264.662 24.3167L264.635 24.3287L264.608 24.3407L264.581 24.3522L264.554 24.3632L264.528 24.3737L264.5 24.3837C264.492 24.3872 264.483 24.3912 264.474 24.3942L264.447 24.4037L264.42 24.4132L264.393 24.4222L264.366 24.4307L264.339 24.4392L264.313 24.4472L264.286 24.4552L264.259 24.4622L264.232 24.4697L264.205 24.4767L264.178 24.4827L264.151 24.4892L264.125 24.4952L264.097 24.5002L264.071 24.5062L264.044 24.5112L264.017 24.5157L263.99 24.5202L263.963 24.5242L263.936 24.5282L263.909 24.5317L263.883 24.5347L263.856 24.5377L263.829 24.5407L263.802 24.5432L263.775 24.5452L263.748 24.5472C263.739 24.5472 263.73 24.5482 263.721 24.5487L263.695 24.5497L263.668 24.5507L263.641 24.5517H263.614L263.587 24.5522H259.499V18.4012H263.856L263.883 18.4002L263.909 18.3997C263.919 18.3997 263.928 18.3987 263.936 18.3982L263.963 18.3972L263.99 18.3952L264.017 18.3932L264.044 18.3912L264.071 18.3882L264.097 18.3857L264.125 18.3822L264.151 18.3787L264.178 18.3747L264.205 18.3707L264.232 18.3657L264.259 18.3607L264.286 18.3557L264.313 18.3507L264.339 18.3442L264.366 18.3382C264.375 18.336 264.384 18.3336 264.393 18.3312L264.42 18.3242C264.456 18.3146 264.492 18.304 264.528 18.2922L264.554 18.2832C264.581 18.274 264.608 18.264 264.635 18.2532L264.662 18.2417L264.689 18.2307L264.716 18.2187C264.882 18.1422 265.036 18.0376 265.173 17.9087C265.242 17.84 265.305 17.7636 265.361 17.6807C265.447 17.5473 265.511 17.3979 265.549 17.2397C265.575 17.1267 265.588 17.0104 265.587 16.8937C265.587 16.7806 265.574 16.6679 265.549 16.5582C265.505 16.3738 265.422 16.203 265.307 16.0592C265.236 15.9687 265.155 15.8884 265.065 15.8202C264.981 15.7542 264.891 15.6974 264.796 15.6507C264.77 15.6373 264.743 15.6247 264.716 15.6127L264.689 15.6007C264.68 15.597 264.671 15.5933 264.662 15.5897L264.635 15.5792C264.6 15.5655 264.564 15.5526 264.528 15.5407L264.5 15.5322C264.447 15.5156 264.394 15.5012 264.339 15.4892L264.313 15.4832L264.286 15.4777L264.259 15.4727C264.25 15.471 264.241 15.4693 264.232 15.4677L264.205 15.4627C264.196 15.4613 264.187 15.46 264.178 15.4587L264.151 15.4547L264.125 15.4507L264.097 15.4477L264.071 15.4447L264.044 15.4417L264.017 15.4392L263.992 15.4372V15.4022L264.017 15.3982L264.044 15.3932L264.071 15.3882L264.097 15.3832L264.125 15.3767L264.151 15.3702C264.252 15.3455 264.351 15.3119 264.447 15.2697C264.561 15.2181 264.669 15.1518 264.769 15.0722C264.929 14.9426 265.058 14.7737 265.145 14.5792C265.203 14.4466 265.24 14.304 265.253 14.1577C265.262 14.0625 265.262 13.9665 265.253 13.8712C265.242 13.7483 265.214 13.6276 265.173 13.5127C265.113 13.3518 265.021 13.2071 264.904 13.0887C264.854 13.0367 264.8 12.9896 264.743 12.9477C264.667 12.8907 264.585 12.8418 264.5 12.8017C264.431 12.7681 264.359 12.7392 264.286 12.7152L264.259 12.7067C264.241 12.7011 264.223 12.6958 264.205 12.6907L264.178 12.6837C264.16 12.6788 264.142 12.6741 264.125 12.6697L264.097 12.6637L264.071 12.6577L264.044 12.6527L264.017 12.6477L263.99 12.6427L263.963 12.6377L263.936 12.6337L263.909 12.6302L263.883 12.6267L263.856 12.6237L263.829 12.6207L263.802 12.6182L263.775 12.6157L263.748 12.6137L263.721 12.6122L263.711 12.6112L263.695 12.6102L263.668 12.6087L263.641 12.6067L263.614 12.6052L263.587 12.6042L263.56 12.6027L263.533 12.6017L263.506 12.6007L263.48 12.6002H263.453L263.438 12.5997H259.498V9.46624C259.499 9.01489 259.592 8.56931 259.771 8.16224C259.819 8.05387 259.873 7.94883 259.932 7.84774C259.95 7.81805 259.968 7.78871 259.986 7.75974L260.013 7.71824C260.031 7.69161 260.049 7.66527 260.067 7.63924L260.094 7.60124L260.121 7.56524C260.138 7.54159 260.156 7.51825 260.174 7.49524L260.201 7.46274L260.228 7.43024C260.254 7.399 260.281 7.36833 260.309 7.33824L260.336 7.30974L260.362 7.28124L260.389 7.25424L260.416 7.22724L260.443 7.20174C260.478 7.16817 260.514 7.13549 260.55 7.10374L260.578 7.08124L260.604 7.05874C260.622 7.04419 260.64 7.02985 260.658 7.01574L260.685 6.99524C260.694 6.98851 260.703 6.98184 260.712 6.97524L260.739 6.95524L260.766 6.93574L260.792 6.91724L260.819 6.89924L260.846 6.88124L260.873 6.86374L260.9 6.84674L260.927 6.83024L260.954 6.81424L260.981 6.79874L261.007 6.78374L261.034 6.76874L261.061 6.75374L261.088 6.74024C261.097 6.73524 261.106 6.73124 261.115 6.72674L261.142 6.71324L261.169 6.70024L261.195 6.68774L261.222 6.67574L261.249 6.66374L261.276 6.65224L261.303 6.64124L261.33 6.63024L261.357 6.62024L261.383 6.60974L261.411 6.59974L261.437 6.59074L261.464 6.58124L261.491 6.57274L261.518 6.56424L261.545 6.55624L261.572 6.54824L261.599 6.54074L261.625 6.53374L261.652 6.52674L261.679 6.52024L261.706 6.51374L261.733 6.50774L261.76 6.50224L261.786 6.49674L261.814 6.49174L261.84 6.48674L261.867 6.48224L261.894 6.47824L261.921 6.47424L261.948 6.47074L261.975 6.46724L262.002 6.46424L262.028 6.46124L262.056 6.45874L262.082 6.45674L262.109 6.45474C262.118 6.45474 262.127 6.45374 262.136 6.45324L262.163 6.45174L262.19 6.45074L262.217 6.44974H262.244L262.27 6.44924H266.355V6.44824Z" fill="#54B230"></path><path fill-rule="evenodd" clip-rule="evenodd" d="M244.094 16.9177V9.46524C244.095 9.01443 244.188 8.56939 244.367 8.16274C244.429 8.02296 244.5 7.88856 244.581 7.76074L244.608 7.71874L244.635 7.67874L244.662 7.63974L244.688 7.60224L244.715 7.56574C244.733 7.54211 244.751 7.51877 244.769 7.49574L244.796 7.46324C244.805 7.45233 244.814 7.4415 244.823 7.43074L244.849 7.39924C244.867 7.37896 244.885 7.35896 244.903 7.33924L244.93 7.31024L244.956 7.28224L244.984 7.25474L245.01 7.22824L245.037 7.20224L245.064 7.17724L245.091 7.15224C245.134 7.11231 245.179 7.07395 245.225 7.03724L245.252 7.01624C245.287 6.98859 245.323 6.96191 245.359 6.93624L245.386 6.91774L245.413 6.89974L245.439 6.88174L245.466 6.86424L245.493 6.84724L245.52 6.83124L245.547 6.81474L245.574 6.79974L245.6 6.78374L245.627 6.76874L245.654 6.75474C245.663 6.74974 245.672 6.74474 245.681 6.74074L245.708 6.72674L245.734 6.71324L245.761 6.70074L245.788 6.68824L245.815 6.67574L245.842 6.66424L245.869 6.65274L245.895 6.64174L245.922 6.63024L245.949 6.62024L245.976 6.61024L246.003 6.60024L246.03 6.59074L246.056 6.58174L246.083 6.57274L246.11 6.56424L246.137 6.55624L246.164 6.54824L246.191 6.54074L246.217 6.53374L246.244 6.52674C246.253 6.52415 246.262 6.52198 246.271 6.52024L246.298 6.51374L246.324 6.50774L246.352 6.50224L246.378 6.49624L246.405 6.49124L246.432 6.48624C246.441 6.48524 246.45 6.48324 246.459 6.48174L246.485 6.47774L246.513 6.47374L246.539 6.47024L246.566 6.46674L246.593 6.46374L246.62 6.46074L246.646 6.45824L246.673 6.45624L246.7 6.45424L246.727 6.45224L246.754 6.45124L246.781 6.44974L246.807 6.44874H246.834L246.861 6.44824H250.961V21.5342C250.961 21.8748 250.908 22.2128 250.804 22.5342C250.7 22.8567 250.546 23.1572 250.348 23.4227L250.321 23.4587C250.304 23.4817 250.286 23.5044 250.268 23.5267L250.241 23.5592L250.214 23.5907L250.187 23.6217C250.152 23.6611 250.117 23.6995 250.08 23.7367L250.053 23.7637L250.026 23.7897L249.999 23.8152L249.973 23.8402L249.946 23.8647L249.919 23.8877L249.892 23.9112L249.866 23.9332L249.838 23.9557L249.812 23.9767L249.785 23.9977L249.758 24.0177L249.731 24.0377L249.705 24.0572L249.677 24.0762C249.669 24.0827 249.66 24.0882 249.651 24.0942L249.624 24.1127L249.597 24.1297L249.57 24.1472C249.561 24.1522 249.552 24.1582 249.544 24.1637C249.526 24.1747 249.508 24.1853 249.49 24.1957L249.463 24.2107L249.436 24.2257L249.409 24.2407L249.383 24.2547L249.356 24.2682L249.329 24.2822L249.302 24.2947L249.275 24.3077L249.248 24.3202L249.222 24.3317L249.195 24.3437L249.168 24.3547L249.141 24.3657L249.114 24.3757L249.088 24.3862L249.061 24.3962L249.034 24.4062C249.025 24.4087 249.016 24.4122 249.007 24.4152L248.98 24.4237L248.953 24.4327L248.927 24.4407L248.9 24.4487L248.873 24.4567L248.846 24.4637L248.819 24.4707L248.792 24.4777L248.766 24.4837L248.739 24.4902L248.712 24.4957L248.685 24.5012L248.658 24.5062L248.631 24.5112L248.605 24.5162L248.578 24.5202L248.551 24.5242L248.524 24.5282L248.497 24.5317L248.47 24.5347L248.444 24.5377L248.417 24.5402L248.39 24.5427L248.363 24.5447L248.336 24.5467L248.309 24.5482L248.283 24.5492L248.256 24.5502L248.229 24.5507H248.202L248.177 24.5517H244.094V18.1932L244.152 18.2097L244.179 18.2167L244.206 18.2237L244.232 18.2307L244.259 18.2377L244.286 18.2447L244.313 18.2512L244.34 18.2577L244.367 18.2642L244.393 18.2707L244.42 18.2767L244.447 18.2832L244.474 18.2892L244.501 18.2952L244.527 18.3012L244.554 18.3072L244.581 18.3127L244.608 18.3187L244.635 18.3242L244.662 18.3297L244.688 18.3352L244.715 18.3407L244.742 18.3462L244.769 18.3512L244.796 18.3567L244.823 18.3617L244.849 18.3667L244.876 18.3717L244.903 18.3767L244.93 18.3817L244.956 18.3867L244.984 18.3917L245.01 18.3967L245.037 18.4007L245.064 18.4057L245.091 18.4102L245.117 18.4147L245.145 18.4187L245.171 18.4232L245.198 18.4272L245.225 18.4317L245.252 18.4357L245.278 18.4397L245.306 18.4437L245.332 18.4477L245.359 18.4517L245.386 18.4552L245.413 18.4592L245.439 18.4627L245.466 18.4667L245.493 18.4702L245.52 18.4737L245.547 18.4772L245.574 18.4802L245.6 18.4837L245.627 18.4872L245.654 18.4902L245.681 18.4932L245.708 18.4962L245.734 18.4992L245.761 18.5022L245.788 18.5052L245.815 18.5082L245.842 18.5107L245.869 18.5132L245.895 18.5162L245.922 18.5187L245.949 18.5212L245.976 18.5237L246.003 18.5257L246.03 18.5282L246.056 18.5302L246.083 18.5327L246.11 18.5347L246.137 18.5367L246.164 18.5387L246.191 18.5407L246.217 18.5427L246.244 18.5442L246.271 18.5462L246.298 18.5477L246.324 18.5492L246.352 18.5507L246.378 18.5522L246.405 18.5537L246.432 18.5552L246.459 18.5567L246.485 18.5577L246.513 18.5587L246.539 18.5597L246.566 18.5607L246.593 18.5617L246.62 18.5627L246.646 18.5637L246.673 18.5642L246.7 18.5652H246.727L246.754 18.5662H246.781L246.807 18.5672H246.861L246.888 18.5677H247.076L247.102 18.5667H247.129L247.156 18.5657L247.183 18.5652L247.21 18.5642L247.237 18.5637L247.263 18.5627L247.29 18.5617L247.317 18.5607L247.344 18.5597L247.371 18.5582L247.398 18.5567L247.424 18.5557L247.451 18.5542L247.478 18.5522L247.505 18.5507L247.531 18.5492L247.559 18.5472L247.585 18.5447L247.612 18.5427L247.639 18.5407L247.666 18.5382L247.692 18.5357L247.72 18.5332L247.746 18.5307L247.773 18.5282L247.8 18.5252L247.827 18.5222L247.853 18.5192L247.88 18.5162L247.907 18.5127L247.934 18.5092L247.961 18.5057L247.988 18.5022L248.014 18.4982L248.041 18.4942L248.068 18.4902L248.095 18.4857L248.122 18.4817L248.149 18.4767L248.175 18.4727L248.202 18.4677L248.229 18.4627L248.256 18.4577L248.283 18.4527L248.309 18.4472L248.336 18.4417L248.363 18.4357C248.372 18.4342 248.381 18.4317 248.39 18.4297L248.417 18.4242L248.444 18.4177L248.47 18.4112L248.497 18.4047L248.524 18.3982L248.551 18.3912L248.578 18.3842L248.605 18.3767L248.631 18.3692L248.658 18.3612L248.685 18.3537L248.712 18.3452L248.739 18.3372L248.766 18.3287L248.792 18.3197L248.819 18.3107L248.846 18.3012L248.873 18.2917L248.9 18.2817L248.927 18.2717L248.953 18.2617L248.98 18.2507L249.007 18.2402L249.034 18.2287L249.061 18.2172L249.088 18.2057L249.114 18.1932L249.141 18.1812L249.168 18.1682L249.195 18.1547L249.222 18.1412C249.231 18.1367 249.24 18.1322 249.248 18.1272L249.275 18.1132L249.302 18.0982L249.329 18.0832L249.356 18.0682C249.383 18.0521 249.41 18.0354 249.436 18.0182L249.463 18.0007L249.49 17.9827L249.517 17.9642L249.544 17.9447L249.57 17.9252C249.579 17.9182 249.589 17.9117 249.597 17.9047L249.624 17.8837L249.651 17.8617C249.678 17.8392 249.705 17.8158 249.731 17.7917L249.758 17.7667L249.785 17.7402L249.812 17.7132C249.83 17.6943 249.848 17.675 249.866 17.6552L249.892 17.6252L249.919 17.5927C250.027 17.4613 250.117 17.314 250.187 17.1552C250.231 17.058 250.267 16.957 250.295 16.8532C250.317 16.7729 250.335 16.6913 250.348 16.6087C250.376 16.4409 250.389 16.2707 250.389 16.1002V12.5992H248.014L247.994 16.1002C247.994 16.2207 247.983 16.3407 247.961 16.4587C247.942 16.5543 247.915 16.6477 247.88 16.7377C247.838 16.8438 247.784 16.9438 247.719 17.0352C247.65 17.1317 247.569 17.217 247.478 17.2887C247.379 17.3673 247.271 17.4303 247.156 17.4757C247.112 17.4936 247.067 17.5092 247.022 17.5227L246.995 17.5307C246.942 17.5457 246.888 17.5577 246.834 17.5667L246.807 17.5717C246.79 17.5745 246.772 17.577 246.754 17.5792L246.727 17.5822L246.7 17.5852L246.673 17.5877C246.655 17.5892 246.638 17.5903 246.62 17.5912L246.593 17.5927L246.566 17.5937H246.539L246.513 17.5947H246.459L246.432 17.5937H246.405L246.378 17.5927L246.352 17.5917L246.324 17.5902L246.298 17.5892L246.271 17.5877L246.244 17.5857L246.217 17.5837L246.191 17.5817L246.164 17.5797L246.137 17.5772L246.11 17.5747L246.083 17.5717L246.056 17.5687L246.03 17.5657L246.003 17.5622L245.976 17.5587L245.949 17.5552L245.922 17.5512L245.895 17.5472L245.869 17.5432L245.842 17.5387L245.815 17.5337L245.788 17.5292L245.761 17.5242L245.734 17.5192L245.708 17.5142L245.681 17.5092L245.654 17.5032L245.627 17.4977L245.6 17.4917L245.574 17.4857L245.547 17.4792L245.52 17.4732L245.493 17.4667L245.466 17.4597L245.439 17.4527L245.413 17.4457L245.386 17.4387L245.359 17.4312L245.332 17.4237L245.306 17.4162L245.278 17.4082L245.252 17.4002L245.225 17.3922L245.198 17.3837L245.171 17.3752L245.145 17.3667L245.117 17.3582L245.091 17.3492L245.064 17.3402L245.037 17.3307L245.01 17.3217L244.984 17.3117L244.956 17.3022L244.93 17.2922L244.903 17.2822L244.876 17.2722L244.849 17.2622L244.823 17.2522L244.796 17.2412L244.769 17.2307L244.742 17.2197L244.715 17.2087L244.688 17.1977L244.662 17.1867L244.635 17.1752L244.608 17.1637L244.581 17.1522L244.554 17.1402L244.527 17.1282L244.501 17.1162L244.474 17.1042L244.447 17.0917L244.42 17.0792L244.393 17.0667L244.367 17.0537L244.34 17.0412L244.313 17.0282L244.286 17.0152L244.259 17.0017L244.232 16.9882L244.206 16.9747L244.179 16.9612L244.152 16.9477L244.094 16.9177V16.9177Z" fill="#006CB9"></path><path fill-rule="evenodd" clip-rule="evenodd" d="M251.854 13.3642C251.834 13.3813 251.815 13.3986 251.797 13.4162V9.46623C251.797 9.01529 251.89 8.57008 252.068 8.16323C252.13 8.02342 252.202 7.88903 252.283 7.76123L252.31 7.71923L252.337 7.67923C252.346 7.66632 252.355 7.65349 252.364 7.64073L252.39 7.60273L252.418 7.56673C252.435 7.5431 252.453 7.51976 252.471 7.49673L252.498 7.46373L252.525 7.43123C252.559 7.39014 252.595 7.35013 252.632 7.31123L252.659 7.28273L252.686 7.25573L252.712 7.22873L252.739 7.20273L252.766 7.17773L252.793 7.15273C252.845 7.10574 252.899 7.06055 252.954 7.01723C252.981 6.99646 253.007 6.97612 253.034 6.95623L253.061 6.93723L253.088 6.91823L253.115 6.90023L253.142 6.88223L253.168 6.86523L253.195 6.84773L253.222 6.83173L253.249 6.81523L253.276 6.80023L253.303 6.78473L253.329 6.76973L253.356 6.75523L253.383 6.74123L253.41 6.72773L253.437 6.71423L253.464 6.70123L253.49 6.68873L253.517 6.67673L253.544 6.66473L253.571 6.65323L253.598 6.64223L253.625 6.63123L253.651 6.62123L253.678 6.61073L253.705 6.60073L253.732 6.59123L253.759 6.58223L253.786 6.57373L253.812 6.56473L253.839 6.55673L253.866 6.54873L253.893 6.54123L253.92 6.53423L253.946 6.52723L253.973 6.52073L254 6.51423L254.027 6.50823L254.054 6.50273L254.081 6.49723L254.107 6.49223L254.134 6.48723L254.161 6.48223L254.188 6.47823L254.215 6.47423L254.242 6.47073L254.268 6.46723L254.295 6.46423L254.322 6.46123L254.349 6.45873L254.376 6.45673L254.403 6.45473L254.429 6.45273L254.456 6.45173L254.483 6.45023L254.51 6.44923H254.536L254.564 6.44873H258.664V21.5347C258.664 21.8753 258.61 22.2133 258.507 22.5347C258.443 22.7284 258.363 22.9147 258.265 23.0907C258.248 23.1218 258.23 23.1524 258.212 23.1827C258.203 23.1977 258.194 23.2127 258.185 23.2267C258.142 23.2941 258.098 23.3596 258.051 23.4232L258.024 23.4592L257.997 23.4937L257.97 23.5267L257.943 23.5597L257.916 23.5912L257.89 23.6222L257.863 23.6522C257.837 23.6812 257.81 23.7095 257.783 23.7372L257.755 23.7642L257.729 23.7902L257.702 23.8157L257.675 23.8407L257.648 23.8647L257.622 23.8882L257.594 23.9117L257.568 23.9337L257.541 23.9557L257.514 23.9772L257.487 23.9982L257.461 24.0182L257.433 24.0382L257.407 24.0577L257.38 24.0767L257.353 24.0947L257.326 24.1132L257.3 24.1302L257.273 24.1477C257.264 24.1533 257.255 24.1588 257.246 24.1642L257.219 24.1802L257.192 24.1962L257.165 24.2112L257.139 24.2262L257.112 24.2412L257.085 24.2552C257.076 24.2602 257.067 24.2642 257.058 24.2687L257.031 24.2822C257.022 24.2872 257.013 24.2912 257.004 24.2952L256.978 24.3082L256.951 24.3202L256.924 24.3322L256.897 24.3442L256.87 24.3552L256.844 24.3662L256.817 24.3762L256.79 24.3867L256.763 24.3967L256.736 24.4067C256.727 24.4092 256.718 24.4127 256.709 24.4157L256.683 24.4242L256.656 24.4332L256.629 24.4412L256.602 24.4492L256.575 24.4572L256.548 24.4642L256.522 24.4712L256.495 24.4782L256.468 24.4842L256.441 24.4907L256.414 24.4962L256.387 24.5017L256.361 24.5067L256.334 24.5117L256.307 24.5167L256.28 24.5207L256.254 24.5247L256.226 24.5287L256.2 24.5322L256.173 24.5352L256.146 24.5382L256.119 24.5407L256.093 24.5432L256.065 24.5452L256.039 24.5472L256.012 24.5487L255.985 24.5497L255.958 24.5507L255.932 24.5512L255.904 24.5517H251.797V17.5862C251.833 17.6198 251.87 17.6524 251.908 17.6837L251.935 17.7057L251.961 17.7272C251.979 17.7413 251.997 17.7551 252.015 17.7687L252.042 17.7887L252.068 17.8077L252.096 17.8267L252.122 17.8452L252.149 17.8632L252.176 17.8812L252.203 17.8982L252.229 17.9152L252.257 17.9317L252.283 17.9477L252.31 17.9637L252.337 17.9787L252.364 17.9937L252.39 18.0087L252.418 18.0232L252.444 18.0372L252.471 18.0512L252.498 18.0647L252.525 18.0777L252.551 18.0907L252.578 18.1032L252.605 18.1157L252.632 18.1277L252.659 18.1397L252.686 18.1512L252.712 18.1627L252.739 18.1742L252.766 18.1852L252.793 18.1952L252.82 18.2062L252.847 18.2162L252.873 18.2262L252.9 18.2362L252.927 18.2462L252.954 18.2552L252.981 18.2647L253.007 18.2737L253.034 18.2822L253.061 18.2907L253.088 18.2992L253.115 18.3077L253.142 18.3157L253.168 18.3237L253.195 18.3317L253.222 18.3392L253.249 18.3467L253.276 18.3537L253.303 18.3607L253.329 18.3677L253.356 18.3747L253.383 18.3812L253.41 18.3877L253.437 18.3942L253.464 18.4002L253.49 18.4062L253.517 18.4122L253.544 18.4182L253.571 18.4237L253.598 18.4292L253.625 18.4342L253.651 18.4397L253.678 18.4447L253.705 18.4497L253.732 18.4547L253.759 18.4597L253.786 18.4642L253.812 18.4687L253.839 18.4732L253.866 18.4772L253.893 18.4812L253.92 18.4857L253.946 18.4892L253.973 18.4932L254 18.4967L254.027 18.5007L254.054 18.5042L254.081 18.5072L254.107 18.5107L254.134 18.5137L254.161 18.5167L254.188 18.5197L254.215 18.5227L254.242 18.5257L254.268 18.5282L254.295 18.5307L254.322 18.5332L254.349 18.5357L254.376 18.5382L254.403 18.5402L254.429 18.5422L254.456 18.5442L254.483 18.5462L254.51 18.5482L254.536 18.5497L254.564 18.5517L254.59 18.5532L254.617 18.5547L254.644 18.5562L254.671 18.5577L254.697 18.5587L254.725 18.5602L254.751 18.5612L254.778 18.5622L254.805 18.5632L254.832 18.5642L254.858 18.5647L254.886 18.5652L254.912 18.5662L254.939 18.5667H254.966L254.993 18.5677H255.019L255.046 18.5682H255.127L255.154 18.5687H255.234L255.261 18.5682L255.288 18.5677H255.315L255.341 18.5667H255.368L255.395 18.5657L255.422 18.5652L255.449 18.5642L255.475 18.5637L255.502 18.5627L255.529 18.5617L255.556 18.5607L255.583 18.5597L255.61 18.5587L255.636 18.5577L255.663 18.5562L255.69 18.5552L255.703 18.5547L255.717 18.5537L255.744 18.5527L255.771 18.5512L255.797 18.5492L255.824 18.5477L255.851 18.5457L255.878 18.5437L255.904 18.5417L255.932 18.5397L255.958 18.5377L255.985 18.5352L256.012 18.5327L256.039 18.5302L256.065 18.5277L256.093 18.5252L256.119 18.5227L256.146 18.5197L256.173 18.5167L256.2 18.5137L256.226 18.5107L256.254 18.5077L256.28 18.5042L256.307 18.5012L256.334 18.4977L256.361 18.4942L256.387 18.4907L256.414 18.4872L256.441 18.4837L256.468 18.4797L256.495 18.4762L256.522 18.4722L256.548 18.4682L256.575 18.4642L256.602 18.4602L256.629 18.4562L256.656 18.4522L256.683 18.4477L256.709 18.4437L256.736 18.4387L256.763 18.4347L256.79 18.4302L256.817 18.4252L256.844 18.4212L256.87 18.4162L256.897 18.4112L256.924 18.4067L256.951 18.4017L256.978 18.3967L257.004 18.3917L257.031 18.3867L257.058 18.3817L257.085 18.3767L257.112 18.3717L257.139 18.3667L257.165 18.3607L257.192 18.3557L257.219 18.3502L257.246 18.3447L257.273 18.3392L257.3 18.3332L257.326 18.3282L257.353 18.3222L257.38 18.3162L257.407 18.3102L257.433 18.3047L257.461 18.2987L257.487 18.2927L257.514 18.2867L257.541 18.2802L257.568 18.2742L257.594 18.2677L257.622 18.2617L257.648 18.2552L257.675 18.2487L257.702 18.2422L257.729 18.2357L257.755 18.2292L257.783 18.2222L257.809 18.2157L257.836 18.2087L257.863 18.2017L257.89 18.1942V16.9182L257.863 16.9327L257.836 16.9467L257.809 16.9612L257.783 16.9752L257.755 16.9892L257.729 17.0032L257.702 17.0167L257.675 17.0302L257.648 17.0437L257.622 17.0567L257.594 17.0702L257.568 17.0832L257.541 17.0957L257.514 17.1082L257.487 17.1207L257.461 17.1332L257.433 17.1457L257.407 17.1577L257.38 17.1697L257.353 17.1812L257.326 17.1927L257.3 17.2042L257.273 17.2152L257.246 17.2267L257.219 17.2377L257.192 17.2482L257.165 17.2587L257.139 17.2692L257.112 17.2792L257.085 17.2892L257.058 17.2992L257.031 17.3092L257.004 17.3192L256.978 17.3282L256.951 17.3377L256.924 17.3467L256.897 17.3557L256.87 17.3647L256.844 17.3732L256.817 17.3817L256.79 17.3902L256.763 17.3982L256.736 17.4062L256.709 17.4137L256.683 17.4212L256.656 17.4287L256.629 17.4362L256.602 17.4432L256.575 17.4502L256.548 17.4572L256.522 17.4637L256.495 17.4702L256.468 17.4767L256.441 17.4827L256.414 17.4887L256.387 17.4947L256.361 17.5002L256.334 17.5052L256.307 17.5112L256.28 17.5162L256.254 17.5212L256.226 17.5262L256.2 17.5312L256.173 17.5352L256.146 17.5402L256.119 17.5437L256.093 17.5482L256.065 17.5522L256.039 17.5557L256.012 17.5592L255.985 17.5627L255.958 17.5662L255.932 17.5692L255.904 17.5722L255.878 17.5752L255.851 17.5777L255.824 17.5802L255.797 17.5827L255.781 17.5842L255.771 17.5847L255.744 17.5867L255.717 17.5887L255.69 17.5902L255.663 17.5917L255.636 17.5932L255.61 17.5942L255.583 17.5952H255.556L255.529 17.5962H255.422L255.395 17.5952L255.368 17.5942L255.341 17.5932L255.315 17.5922L255.288 17.5902L255.261 17.5887L255.234 17.5867L255.207 17.5842L255.18 17.5822L255.154 17.5792L255.127 17.5762L255.1 17.5727L255.073 17.5692L255.046 17.5652L255.019 17.5612L254.993 17.5572L254.966 17.5522L254.939 17.5472L254.912 17.5422L254.886 17.5367L254.858 17.5302L254.832 17.5242L254.805 17.5177L254.778 17.5107L254.751 17.5032L254.725 17.4957L254.697 17.4877C254.688 17.4851 254.68 17.4825 254.671 17.4797L254.644 17.4707C254.626 17.4648 254.608 17.4586 254.59 17.4522L254.564 17.4422L254.536 17.4317L254.51 17.4212L254.483 17.4097L254.456 17.3982L254.429 17.3857L254.403 17.3732L254.376 17.3597L254.349 17.3457C254.331 17.3364 254.313 17.3267 254.295 17.3167L254.268 17.3012C254.259 17.2962 254.25 17.2902 254.242 17.2847C254.214 17.2679 254.187 17.2504 254.161 17.2322C254.152 17.2265 254.143 17.2203 254.134 17.2137L254.107 17.1937C254.089 17.1801 254.071 17.1661 254.054 17.1517L254.027 17.1292C254.018 17.1217 254.009 17.114 254 17.1062L253.973 17.0822C253.946 17.0566 253.919 17.0299 253.893 17.0022C253.884 16.9922 253.874 16.9832 253.866 16.9732C253.818 16.9199 253.773 16.8631 253.732 16.8032C253.67 16.7141 253.616 16.6184 253.571 16.5177C253.527 16.4219 253.492 16.3222 253.464 16.2197C253.441 16.1396 253.423 16.0581 253.41 15.9757C253.361 15.6615 253.361 15.3405 253.41 15.0262C253.429 14.9132 253.456 14.8019 253.49 14.6932C253.52 14.6019 253.556 14.513 253.598 14.4272C253.651 14.3199 253.714 14.2187 253.786 14.1252C253.835 14.0608 253.889 14.0006 253.947 13.9452C253.955 13.9367 253.964 13.9277 253.973 13.9197L254 13.8952C254.035 13.8646 254.07 13.8354 254.107 13.8077L254.134 13.7877L254.161 13.7692C254.179 13.7569 254.197 13.7449 254.215 13.7332L254.242 13.7167L254.268 13.7002L254.295 13.6852C254.313 13.6749 254.331 13.6649 254.349 13.6552L254.376 13.6417L254.403 13.6282L254.429 13.6157L254.456 13.6032L254.483 13.5917L254.51 13.5802L254.536 13.5697L254.564 13.5592L254.59 13.5492C254.617 13.5395 254.644 13.5304 254.671 13.5217L254.697 13.5137L254.725 13.5057C254.733 13.5027 254.742 13.5007 254.751 13.4982L254.778 13.4907L254.805 13.4837L254.832 13.4772L254.858 13.4712L254.886 13.4647L254.912 13.4597L254.939 13.4542L254.966 13.4492L254.993 13.4442L255.019 13.4402L255.046 13.4357L255.073 13.4322L255.1 13.4287L255.127 13.4252L255.154 13.4222L255.18 13.4192L255.207 13.4172L255.234 13.4147L255.261 13.4127L255.288 13.4107L255.315 13.4092L255.341 13.4082C255.351 13.4082 255.359 13.4072 255.368 13.4067L255.395 13.4062L255.422 13.4057L255.449 13.4052H255.529L255.556 13.4057L255.583 13.4062L255.61 13.4072L255.636 13.4082L255.663 13.4097L255.69 13.4112L255.717 13.4127L255.744 13.4147L255.771 13.4167L255.781 13.4172L255.797 13.4187L255.824 13.4212L255.851 13.4237L255.878 13.4262L255.904 13.4287L255.932 13.4317L255.958 13.4352L255.985 13.4382L256.012 13.4417L256.039 13.4452L256.065 13.4487L256.093 13.4527L256.119 13.4567L256.146 13.4612L256.173 13.4652L256.2 13.4702L256.226 13.4747L256.254 13.4797L256.28 13.4847L256.307 13.4897L256.334 13.4947L256.361 13.4997L256.387 13.5057L256.414 13.5117L256.441 13.5177L256.468 13.5237L256.495 13.5297L256.522 13.5362L256.548 13.5427L256.575 13.5497L256.602 13.5567L256.629 13.5637L256.656 13.5707L256.683 13.5782L256.709 13.5857L256.736 13.5937L256.763 13.6017L256.79 13.6097L256.817 13.6182L256.844 13.6262L256.87 13.6352L256.897 13.6437L256.924 13.6527L256.951 13.6617L256.978 13.6712L257.004 13.6807L257.031 13.6907L257.058 13.7002L257.085 13.7102L257.112 13.7202L257.139 13.7302L257.165 13.7407L257.192 13.7517L257.219 13.7622L257.246 13.7732L257.273 13.7847L257.3 13.7957L257.326 13.8072L257.353 13.8187L257.38 13.8307L257.407 13.8427L257.433 13.8547L257.461 13.8672L257.487 13.8797L257.514 13.8922L257.541 13.9047L257.568 13.9177L257.594 13.9307L257.622 13.9442L257.648 13.9577L257.675 13.9712L257.702 13.9847L257.729 13.9987L257.755 14.0122L257.783 14.0267L257.809 14.0407L257.836 14.0552L257.863 14.0697L257.89 14.0842V12.8067L257.863 12.7997L257.836 12.7927L257.809 12.7857L257.783 12.7792L257.755 12.7722L257.729 12.7657L257.702 12.7592L257.675 12.7527L257.648 12.7462L257.622 12.7397L257.594 12.7332L257.568 12.7272L257.541 12.7212L257.514 12.7147L257.487 12.7087L257.461 12.7027L257.433 12.6967L257.407 12.6912L257.38 12.6852L257.353 12.6792L257.326 12.6737L257.3 12.6682L257.273 12.6622L257.246 12.6572L257.219 12.6512L257.192 12.6462L257.165 12.6407L257.139 12.6352L257.112 12.6302L257.085 12.6252L257.058 12.6197L257.031 12.6147L257.004 12.6097L256.978 12.6047L256.951 12.5997L256.924 12.5947L256.897 12.5897L256.87 12.5852L256.844 12.5802L256.817 12.5757L256.79 12.5712L256.763 12.5667L256.736 12.5622L256.709 12.5582L256.683 12.5537L256.656 12.5497L256.629 12.5452L256.602 12.5412L256.575 12.5372L256.548 12.5332L256.522 12.5292L256.495 12.5257L256.468 12.5217L256.441 12.5182L256.414 12.5142L256.387 12.5107L256.361 12.5072L256.334 12.5037L256.306 12.5002L256.28 12.4967L256.253 12.4937L256.226 12.4907L256.199 12.4872L256.173 12.4847L256.145 12.4817L256.119 12.4787L256.092 12.4762L256.065 12.4737L256.038 12.4707L256.012 12.4682L255.984 12.4662L255.958 12.4637L255.931 12.4617L255.904 12.4597L255.877 12.4577L255.851 12.4557L255.824 12.4537L255.797 12.4522L255.77 12.4507L255.743 12.4492L255.716 12.4477L255.702 12.4467H255.69L255.663 12.4452L255.636 12.4437L255.61 12.4427L255.583 12.4417L255.556 12.4407L255.529 12.4397L255.502 12.4387L255.475 12.4377L255.449 12.4372L255.422 12.4362H255.395L255.368 12.4352L255.341 12.4347L255.315 12.4342H255.288L255.261 12.4332H255.019L254.993 12.4337L254.966 12.4342L254.939 12.4347L254.912 12.4352L254.886 12.4362L254.858 12.4367L254.832 12.4377L254.805 12.4387L254.778 12.4392L254.751 12.4402L254.725 12.4417L254.697 12.4427L254.671 12.4442L254.644 12.4452L254.617 12.4467L254.59 12.4482L254.564 12.4497L254.536 12.4517L254.51 12.4532L254.483 12.4552L254.456 12.4572L254.429 12.4592L254.403 12.4612L254.376 12.4637L254.349 12.4657L254.322 12.4682L254.295 12.4707L254.268 12.4732L254.242 12.4762L254.215 12.4787L254.188 12.4817L254.161 12.4847L254.134 12.4877L254.107 12.4907L254.081 12.4942L254.054 12.4977L254.027 12.5012L254 12.5047L253.973 12.5082L253.946 12.5122L253.92 12.5162L253.893 12.5202L253.866 12.5242L253.839 12.5287L253.812 12.5332L253.786 12.5372L253.759 12.5422L253.732 12.5472L253.705 12.5517L253.678 12.5567L253.651 12.5617L253.625 12.5667L253.598 12.5727L253.571 12.5777L253.544 12.5837L253.517 12.5892L253.49 12.5952L253.464 12.6012L253.437 12.6077L253.41 12.6137L253.383 12.6202L253.356 12.6272L253.329 12.6337L253.303 12.6407L253.276 12.6477L253.249 12.6552L253.222 12.6627L253.195 12.6702L253.168 12.6782L253.142 12.6857L253.115 12.6942L253.088 12.7022L253.061 12.7107L253.034 12.7192L253.007 12.7282L252.981 12.7372L252.954 12.7467L252.927 12.7557L252.9 12.7657L252.873 12.7757L252.847 12.7857L252.82 12.7957L252.793 12.8062L252.766 12.8167L252.739 12.8277L252.712 12.8387L252.686 12.8502L252.659 12.8622L252.632 12.8737L252.605 12.8862L252.578 12.8987L252.551 12.9112L252.525 12.9242L252.498 12.9372L252.471 12.9507L252.444 12.9647L252.418 12.9787L252.39 12.9932L252.364 13.0082L252.337 13.0232L252.31 13.0382L252.283 13.0542L252.257 13.0702L252.229 13.0867L252.203 13.1037L252.176 13.1212L252.149 13.1387L252.122 13.1567L252.096 13.1752L252.068 13.1942L252.042 13.2137L252.015 13.2337C251.997 13.2472 251.979 13.2609 251.961 13.2747L251.935 13.2962C251.907 13.3184 251.881 13.341 251.854 13.3642H251.854Z" fill="#E10238"></path><defs><linearGradient id="paint0_linear_3880_8500" x1="142.216" y1="15.3438" x2="139.652" y2="11.4547" gradientUnits="userSpaceOnUse"><stop stop-color="#F89F20"></stop><stop offset="0.25" stop-color="#F79A20"></stop><stop offset="0.533" stop-color="#F68D20"></stop><stop offset="0.62" stop-color="#F58720"></stop><stop offset="0.723" stop-color="#F48120"></stop><stop offset="1" stop-color="#F37521"></stop></linearGradient><linearGradient id="paint1_linear_3880_8500" x1="141.83" y1="15.2901" x2="138.061" y2="8.15565" gradientUnits="userSpaceOnUse"><stop stop-color="#F58720"></stop><stop offset="0.359" stop-color="#E16F27"></stop><stop offset="0.703" stop-color="#D4602C"></stop><stop offset="0.982" stop-color="#D05B2E"></stop></linearGradient></defs></svg>